<svg width="159" height="71" viewBox="0 0 159 71" fill="none" xmlns="http://www.w3.org/2000/svg">
<rect width="159" height="71" fill="#F8D7BF"/>
<path d="M26.125 38.8516V55H18.25V15.3438H26.125V31.4922H33.5781V15.3438H41.4531V55H33.5781V38.8516H26.125ZM47.7344 55V15.3438H55.6094V55H47.7344ZM69.7656 22.6797V47.6641H73.4922C75.9766 47.6641 77.2188 46.8047 77.2188 45.0859V22.6797H69.7656ZM61.8906 15.3438H79.2812C80.8594 15.3438 82.2188 15.8672 83.3594 16.9141C84.5156 17.9766 85.0938 19.2578 85.0938 20.7578V45.0859C85.0938 48.1172 83.9375 50.5547 81.625 52.3984C79.4531 54.1328 76.7422 55 73.4922 55H61.8906V15.3438ZM98.8281 47.6641H111.953V55H90.9531V15.3438H111.953V22.6797H98.8281V31.4922H109.75V38.8516H98.8281V47.6641ZM130.656 22.6797H123.203V28.9375C123.203 30.6406 124.445 31.4922 126.93 31.4922C130.18 31.4922 132.891 32.3594 135.062 34.0938C137.375 35.9375 138.531 38.375 138.531 41.4062V49.5859C138.531 51.0859 137.953 52.3672 136.797 53.4297C135.656 54.4766 134.297 55 132.719 55H121.141C119.562 55 118.203 54.4766 117.062 53.4297C115.906 52.3672 115.328 51.0859 115.328 49.5859V41.5938H123.203V47.6641H130.656V41.4062C130.656 39.7031 129.414 38.8516 126.93 38.8516C123.68 38.8516 120.969 37.9844 118.797 36.25C116.484 34.4062 115.328 31.9688 115.328 28.9375V20.7578C115.328 19.2578 115.906 17.9766 117.062 16.9141C118.203 15.8672 119.562 15.3438 121.141 15.3438H132.719C134.297 15.3438 135.656 15.8672 136.797 16.9141C137.953 17.9766 138.531 19.2578 138.531 20.7578V28.7266H130.656V22.6797Z" fill="#C96923"/>
</svg>
